<?xml version="1.0" encoding="UTF-8"?>
<!-- Generated by Pixelmator Pro 3.5.7 -->
<svg width="500" height="528" viewBox="0 0 500 528" xmlns="http://www.w3.org/2000/svg">
    <g id="g1">
        <path id="path1" fill="#ff9800" stroke="none" d="M 499.757813 260.829041 C 498.624207 256.417419 502.611298 260.516724 384.717712 142.807709 C 287.22879 45.47818 272.179382 30.603516 270.263977 29.705566 C 262.133392 25.840485 253.416473 28.768585 250.875671 36.225433 C 250.250229 38.099396 250.172058 41.10556 250.054779 75.266571 L 249.9375 112.238495 L 131.613937 112.238495 C 4.534364 112.238495 10.43682 112.160431 6.488822 114.15152 C 4.22164 115.322754 2.228041 117.470032 1.016283 120.00769 L -0 122.194 L 0.156333 227.800262 C 0.2345 285.893463 0.390891 349.998962 0.547225 370.300415 L 0.781783 407.194275 L 1.876291 409.419586 C 3.635273 413.011353 7.192438 415.470947 11.922219 416.368896 C 13.290368 416.642212 54.334206 416.759308 131.926651 416.759308 L 249.898407 416.759308 L 250.172058 425.075073 C 250.328384 429.603882 250.367508 446.19635 250.328384 461.851837 C 250.172058 493.592285 250.093857 492.889526 252.830124 496.481323 C 255.331848 499.799805 260.921631 501.673767 265.768707 500.775848 C 271.280304 499.721741 262.680634 508.037476 384.756775 386.151062 C 491.861755 279.25647 497.138824 273.946838 498.428741 271.292084 C 499.60141 268.988647 499.835968 268.012634 499.953217 265.435913 C 500.070465 263.718079 499.953217 261.687958 499.757813 260.829041 Z"/>
    </g>
</svg>
